HIERARCHY
ROOT hip
{
  OFFSET 0 0 0
  CHANNELS 6 Xposition Yposition Zposition Zrotation Yrotation Xrotation
  JOINT abdomen
  {
    OFFSET 0 20.6881 -0.73152
    CHANNELS 3 Zrotation Xrotation Yrotation
    JOINT chest
    {
      OFFSET 0 11.7043 -0.48768
      CHANNELS 3 Zrotation Xrotation Yrotation
      JOINT neck
      {
        OFFSET 0 22.1894 -2.19456
        CHANNELS 3 Zrotation Xrotation Yrotation
        JOINT head
        {
          OFFSET -0.24384 7.07133 1.2192
          CHANNELS 3 Zrotation Xrotation Yrotation
          JOINT leftEye
          {
            OFFSET 4.14528 8.04674 8.04672
            CHANNELS 3 Zrotation Xrotation Yrotation
            End Site
            {
              OFFSET 1 0 0
            }
          }
          JOINT rightEye
          {
            OFFSET -3.6576 8.04674 8.04672
            CHANNELS 3 Zrotation Xrotation Yrotation
            End Site
            {
              OFFSET 1 0 0
            }
          }
        }
      }
      JOINT rCollar
      {
        OFFSET -2.68224 19.2634 -4.8768
        CHANNELS 3 Zrotation Xrotation Yrotation
        JOINT rShldr
        {
          OFFSET -8.77824 -1.95073 1.46304
          CHANNELS 3 Zrotation Xrotation Yrotation
          JOINT rForeArm
          {
            OFFSET -28.1742 -1.7115 0.48768
            CHANNELS 3 Zrotation Xrotation Yrotation
            JOINT rHand
            {
              OFFSET -22.5879 0.773209 7.07136
              CHANNELS 3 Zrotation Xrotation Yrotation
              JOINT rThumb1
              {
                OFFSET -1.2192 -0.487915 3.41376
                CHANNELS 3 Zrotation Xrotation Yrotation
                JOINT rThumb2
                {
                  OFFSET -3.37035 -0.52449 3.41376
                  CHANNELS 3 Zrotation Xrotation Yrotation
                  End Site
                  {
                    OFFSET -1.78271 -1.18214 1.43049
                  }
                }
              }
              JOINT rIndex1
              {
                OFFSET -7.75947 0.938293 5.60832
                CHANNELS 3 Zrotation Xrotation Yrotation
                JOINT rIndex2
                {
                  OFFSET -2.54057 -0.884171 1.56538
                  CHANNELS 3 Zrotation Xrotation Yrotation
                  End Site
                  {
                    OFFSET -1.62519 -0.234802 1.16502
                  }
                }
              }
              JOINT rMid1
              {
                OFFSET -8.24714 1.18213 3.41376
                CHANNELS 3 Zrotation Xrotation Yrotation
                JOINT rMid2
                {
                  OFFSET -3.10165 -0.590103 1.0647
                  CHANNELS 3 Zrotation Xrotation Yrotation
                  End Site
                  {
                    OFFSET -2.48547 -0.328903 0.83742
                  }
                }
              }
              JOINT rRing1
              {
                OFFSET -8.82822 0.546677 1.51678
                CHANNELS 3 Zrotation Xrotation Yrotation
                JOINT rRing2
                {
                  OFFSET -2.60934 -0.819778 -0.0198488
                  CHANNELS 3 Zrotation Xrotation Yrotation
                  End Site
                  {
                    OFFSET -2.33842 -0.294052 0.168128
                  }
                }
              }
              JOINT rPinky1
              {
                OFFSET -8.27202 -0.0477905 -0.4584
                CHANNELS 3 Zrotation Xrotation Yrotation
                JOINT rPinky2
                {
                  OFFSET -1.82734 -0.647385 -0.700984
                  CHANNELS 3 Zrotation Xrotation Yrotation
                  End Site
                  {
                    OFFSET -1.69225 -0.51767 -0.607171
                  }
                }
              }
            }
          }
        }
      }
      JOINT lCollar
      {
        OFFSET 2.68224 19.2634 -4.8768
        CHANNELS 3 Zrotation Xrotation Yrotation
        JOINT lShldr
        {
          OFFSET 8.77824 -1.95073 1.46304
          CHANNELS 3 Zrotation Xrotation Yrotation
          JOINT lForeArm
          {
            OFFSET 28.1742 -1.7115 0.48768
            CHANNELS 3 Zrotation Xrotation Yrotation
            JOINT lHand
            {
              OFFSET 22.5879 0.773209 7.07136
              CHANNELS 3 Zrotation Xrotation Yrotation
              JOINT lThumb1
              {
                OFFSET 1.2192 -0.487915 3.41376
                CHANNELS 3 Zrotation Xrotation Yrotation
                JOINT lThumb2
                {
                  OFFSET 3.37035 -0.52449 3.41376
                  CHANNELS 3 Zrotation Xrotation Yrotation
                  End Site
                  {
                    OFFSET 1.78271 -1.18214 1.43049
                  }
                }
              }
              JOINT lIndex1
              {
                OFFSET 7.75947 0.938293 5.60832
                CHANNELS 3 Zrotation Xrotation Yrotation
                JOINT lIndex2
                {
                  OFFSET 2.54057 -0.884171 1.56538
                  CHANNELS 3 Zrotation Xrotation Yrotation
                  End Site
                  {
                    OFFSET 1.62519 -0.234802 1.16502
                  }
                }
              }
              JOINT lMid1
              {
                OFFSET 8.24714 1.18213 3.41376
                CHANNELS 3 Zrotation Xrotation Yrotation
                JOINT lMid2
                {
                  OFFSET 3.10165 -0.590103 1.0647
                  CHANNELS 3 Zrotation Xrotation Yrotation
                  End Site
                  {
                    OFFSET 2.48547 -0.328903 0.83742
                  }
                }
              }
              JOINT lRing1
              {
                OFFSET 8.82822 0.546677 1.51678
                CHANNELS 3 Zrotation Xrotation Yrotation
                JOINT lRing2
                {
                  OFFSET 2.60934 -0.819778 -0.0198488
                  CHANNELS 3 Zrotation Xrotation Yrotation
                  End Site
                  {
                    OFFSET 2.33842 -0.294052 0.168128
                  }
                }
              }
              JOINT lPinky1
              {
                OFFSET 8.27202 -0.0477905 -0.4584
                CHANNELS 3 Zrotation Xrotation Yrotation
                JOINT lPinky2
                {
                  OFFSET 1.82734 -0.647385 -0.700984
                  CHANNELS 3 Zrotation Xrotation Yrotation
                  End Site
                  {
                    OFFSET 1.69225 -0.51767 -0.607171
                  }
                }
              }
            }
          }
        }
      }
    }
  }
  JOINT rButtock
  {
    OFFSET -8.77824 4.35084 1.2192
    CHANNELS 3 Zrotation Xrotation Yrotation
    JOINT rThigh
    {
      OFFSET 0 -1.70687 -2.19456
      CHANNELS 3 Zrotation Xrotation Yrotation
      JOINT rShin
      {
        OFFSET 0 -36.8199 0.73152
        CHANNELS 3 Zrotation Xrotation Yrotation
        JOINT rFoot
        {
          OFFSET 0.73152 -45.1104 -5.12064
          CHANNELS 3 Zrotation Xrotation Yrotation
          End Site
          {
            OFFSET -1.1221 -3.69964 12.103
          }
        }
      }
    }
  }
  JOINT lButtock
  {
    OFFSET 8.77824 4.35084 1.2192
    CHANNELS 3 Zrotation Xrotation Yrotation
    JOINT lThigh
    {
      OFFSET 0 -1.70687 -2.19456
      CHANNELS 3 Zrotation Xrotation Yrotation
      JOINT lShin
      {
        OFFSET 0 -36.8199 0.73152
        CHANNELS 3 Zrotation Xrotation Yrotation
        JOINT lFoot
        {
          OFFSET -0.73152 -45.1104 -5.12064
          CHANNELS 3 Zrotation Xrotation Yrotation
          End Site
          {
            OFFSET 1.1221 -3.69964 12.103
          }
        }
      }
    }
  }
}
MOTION
Frames:	7
Frame Time:	0.00833333
-172.225 83.1486 -11.1554 -308.465 79.3732 -310.953 10.2648 17.7466 -8.79515 14.2951 -5.19955 -1.11556 -2.54543 12.63 2.99083 -27.7364 -43.5241 -3.2136 -0.0 0.0 0.0 -0.0 0.0 0.0 2.51221e-13 5.02546e-13 -3.37089e-13 33.6934 37.4145 5.98065 -24.4079 -19.8792 50.9266 -0.018919 3.92368 0.552309 -3.02271e-09 -3.31843e-09 4.23255e-09 -5.21611e-09 -5.73824e-09 7.32844e-09 -3.02271e-09 -3.31844e-09 4.23255e-09 7.73091 5.47488 0.417314 -3.02271e-09 -3.31844e-09 4.23256e-09 2.90554 0.965183 0.102902 -3.02271e-09 -3.31844e-09 4.23256e-09 10.2786 0.731801 0.0259123 -3.02272e-09 -3.31843e-09 4.23257e-09 2.22167 -0.733487 -0.20892 2.51274e-13 5.02509e-13 -3.37189e-13 21.943 -35.308 -21.6228 27.8414 -29.7384 -66.8313 0.310625 -15.662 2.25824 -8.53443e-10 -8.39275e-10 2.43057e-09 -1.49706e-09 -1.5406e-09 4.18638e-09 -8.53445e-10 -8.39264e-10 2.43057e-09 -7.73091 5.47488 -0.417314 -8.53441e-10 -8.39272e-10 2.43057e-09 -2.90554 0.965183 -0.102902 -8.53451e-10 -8.39268e-10 2.43057e-09 -10.2786 0.731801 -0.0259123 -8.53436e-10 -8.3927e-10 2.43055e-09 -2.22167 -0.733487 0.20892 -2.03217e-16 0.0 -3.88251e-19 -17.4909 -8.90246 13.7875 -0.151665 23.378 0.555685 -6.78227 -9.93868 -20.2547 2.03217e-16 0.0 3.88251e-19 -8.39933 -3.64615 -6.83235 0.0125509 16.7506 -0.343782 2.49994 -5.88285 17.9675
-172.334 83.16 -10.9953 -309.342 79.573 -311.735 10.1313 17.9168 -8.73982 14.2177 -5.19683 -1.10612 -2.51314 12.7368 3.00618 -27.6161 -43.5196 -3.15572 -0.0 0.0 0.0 -0.0 0.0 0.0 2.39457e-13 3.63938e-13 -2.83457e-13 33.9806 37.1583 6.40376 -24.4582 -19.9788 51.0934 -0.0181433 3.84164 0.540726 -2.99447e-09 -3.01843e-09 3.5996e-09 -5.16896e-09 -5.21981e-09 6.23328e-09 -2.99446e-09 -3.01844e-09 3.5996e-09 7.73091 5.47488 0.417314 -2.99447e-09 -3.01844e-09 3.59961e-09 2.90554 0.965183 0.102902 -2.99447e-09 -3.01844e-09 3.59961e-09 10.2786 0.731801 0.0259123 -2.99448e-09 -3.01843e-09 3.59962e-09 2.22167 -0.733487 -0.20892 2.39491e-13 3.639e-13 -2.83532e-13 21.4441 -35.2752 -22.0508 27.8996 -30.0414 -67.3084 0.322807 -15.9556 2.30286 -6.49755e-10 -8.34405e-10 2.24729e-09 -1.14523e-09 -1.53164e-09 3.87203e-09 -6.49758e-10 -8.34397e-10 2.2473e-09 -7.73091 5.47488 -0.417314 -6.49752e-10 -8.34401e-10 2.24729e-09 -2.90554 0.965183 -0.102902 -6.49762e-10 -8.34398e-10 2.24729e-09 -10.2786 0.731801 -0.0259123 -6.49748e-10 -8.34401e-10 2.24728e-09 -2.22167 -0.733487 0.20892 -2.03217e-16 0.0 -3.88251e-19 -17.1957 -9.0093 13.4865 -0.151493 23.28 0.546722 -6.65004 -9.83525 -19.9924 2.03217e-16 0.0 3.88251e-19 -8.1299 -3.83786 -7.03031 0.0110334 16.943 -0.347508 2.5931 -5.95778 18.2143
-172.44 83.1716 -10.8265 -310.333 79.7563 -312.649 9.98305 18.1196 -8.66356 14.1178 -5.19947 -1.09166 -2.4468 12.845 3.02754 -27.5222 -43.4847 -3.09196 -0.0 0.0 0.0 -0.0 0.0 0.0 1.78103e-13 2.07993e-13 -2.31044e-13 34.3253 36.955 6.8043 -24.5095 -20.0807 51.2645 -0.0174643 3.76963 0.530561 -3.23121e-09 -2.85066e-09 3.10571e-09 -5.57951e-09 -4.92958e-09 5.37822e-09 -3.2312e-09 -2.85066e-09 3.10571e-09 7.73091 5.47488 0.417314 -3.2312e-09 -2.85066e-09 3.10572e-09 2.90554 0.965183 0.102902 -3.2312e-09 -2.85066e-09 3.10571e-09 10.2786 0.731801 0.0259123 -3.23121e-09 -2.85065e-09 3.10572e-09 2.22167 -0.733487 -0.20892 1.78106e-13 2.07964e-13 -2.311e-13 20.9273 -35.025 -22.4372 27.9601 -30.3824 -67.86 0.334489 -16.2338 2.34522 -3.64994e-10 1.57977e-10 2.37848e-09 -6.5685e-10 1.68673e-10 4.10029e-09 -3.65e-10 1.57981e-10 2.37849e-09 -7.73091 5.47488 -0.417314 -3.64991e-10 1.57982e-10 2.37848e-09 -2.90554 0.965183 -0.102902 -3.65001e-10 1.57985e-10 2.37848e-09 -10.2786 0.731801 -0.0259123 -3.64988e-10 1.57979e-10 2.37847e-09 -2.22167 -0.733487 0.20892 -2.03217e-16 0.0 -3.88251e-19 -16.9046 -9.11288 13.1543 -0.151481 23.1943 0.537401 -6.50028 -9.7278 -19.6746 2.03217e-16 0.0 3.88251e-19 -7.86762 -3.98919 -7.24322 0.00894463 17.1123 -0.35141 2.68294 -6.01588 18.4952
-172.545 83.1834 -10.6492 -311.444 79.9253 -313.701 9.82915 18.3496 -8.57081 13.9932 -5.20279 -1.07354 -2.35055 12.9452 3.05123 -27.4374 -43.4203 -3.02269 -0.0 0.0 0.0 -0.0 0.0 0.0 1.08002e-13 6.37489e-14 -1.83945e-13 34.7167 36.81 7.18374 -24.5635 -20.1891 51.4456 -0.0169355 3.71288 0.522551 -3.50199e-09 -2.72393e-09 2.70286e-09 -6.04864e-09 -4.71019e-09 4.68057e-09 -3.50199e-09 -2.72393e-09 2.70287e-09 7.73091 5.47488 0.417314 -3.50199e-09 -2.72393e-09 2.70287e-09 2.90554 0.965183 0.102902 -3.50199e-09 -2.72393e-09 2.70287e-09 10.2786 0.731801 0.0259123 -3.502e-09 -2.72393e-09 2.70288e-09 2.22167 -0.733487 -0.20892 1.07975e-13 6.37338e-14 -1.83991e-13 20.4002 -34.5673 -22.7614 28.0232 -30.7596 -68.4702 0.344846 -16.4754 2.38213 -8.75627e-11 1.34993e-09 2.59478e-09 -1.81818e-10 2.21059e-09 4.47528e-09 -8.75716e-11 1.34993e-09 2.59479e-09 -7.73091 5.47488 -0.417314 -8.75593e-11 1.34993e-09 2.59478e-09 -2.90554 0.965183 -0.102902 -8.75687e-11 1.34994e-09 2.59478e-09 -10.2786 0.731801 -0.0259123 -8.75575e-11 1.34993e-09 2.59477e-09 -2.22167 -0.733487 0.20892 -2.03217e-16 0.0 -3.88251e-19 -16.61 -9.20758 12.8055 -0.151514 23.107 0.527616 -6.33965 -9.61276 -19.3246 2.03217e-16 0.0 3.88251e-19 -7.60391 -4.11566 -7.50343 0.00660567 17.2676 -0.355275 2.77251 -6.04848 18.8355
-172.648 83.1955 -10.4622 -312.652 80.0807 -314.868 9.67865 18.6012 -8.46604 13.8415 -5.20213 -1.05314 -2.22848 13.0276 3.07358 -27.3442 -43.3271 -2.94828 -0.0 0.0 0.0 -0.0 0.0 0.0 6.99937e-14 -3.97571e-14 -1.46256e-13 35.1437 36.7285 7.54355 -24.6222 -20.3078 51.6425 -0.0166074 3.67662 0.517432 -3.5759e-09 -2.54709e-09 2.34306e-09 -6.17722e-09 -4.4043e-09 4.05766e-09 -3.5759e-09 -2.54708e-09 2.34307e-09 7.73091 5.47488 0.417314 -3.5759e-09 -2.54708e-09 2.34307e-09 2.90554 0.965183 0.102902 -3.5759e-09 -2.54708e-09 2.34307e-09 10.2786 0.731801 0.0259123 -3.57591e-09 -2.54708e-09 2.34308e-09 2.22167 -0.733487 -0.20892 6.99554e-14 -3.97571e-14 -1.46306e-13 19.8683 -33.9114 -23.0052 28.0891 -31.1721 -69.1233 0.352953 -16.6593 2.41032 9.41407e-11 1.9535e-09 2.66684e-09 1.29946e-10 3.24437e-09 4.60114e-09 9.41297e-11 1.9535e-09 2.66685e-09 -7.73091 5.47488 -0.417314 9.41437e-11 1.95351e-09 2.66684e-09 -2.90554 0.965183 -0.102902 9.41351e-11 1.95351e-09 2.66683e-09 -10.2786 0.731801 -0.0259123 9.41458e-11 1.9535e-09 2.66683e-09 -2.22167 -0.733487 0.20892 -2.03217e-16 0.0 -3.88251e-19 -16.3042 -9.28777 12.4552 -0.151487 23.0044 0.517266 -6.17471 -9.48666 -18.9653 2.03217e-16 0.0 3.88251e-19 -7.33066 -4.23265 -7.84333 0.00433775 17.4177 -0.358887 2.8646 -6.0469 19.2606
-172.751 83.2074 -10.2668 -313.979 80.2312 -316.165 9.52564 18.8821 -8.34944 13.659 -5.19662 -1.03112 -2.07652 13.0927 3.09693 -27.2374 -43.2147 -2.86428 -0.0 0.0 0.0 -0.0 0.0 0.0 8.84723e-14 -9.20221e-14 -1.22678e-13 35.6092 36.7131 7.89135 -24.6853 -20.4365 51.8562 -0.0164909 3.66279 0.515481 -3.37106e-09 -2.28788e-09 2.01339e-09 -5.82364e-09 -3.95623e-09 3.48726e-09 -3.37106e-09 -2.28787e-09 2.0134e-09 7.73091 5.47488 0.417314 -3.37106e-09 -2.28787e-09 2.0134e-09 2.90554 0.965183 0.102902 -3.37105e-09 -2.28787e-09 2.0134e-09 10.2786 0.731801 0.0259123 -3.37106e-09 -2.28787e-09 2.01341e-09 2.22167 -0.733487 -0.20892 8.84553e-14 -9.20031e-14 -1.22755e-13 19.3543 -33.0469 -23.1561 28.1544 -31.6202 -69.8325 0.357465 -16.7594 2.42569 1.30263e-10 1.57788e-09 2.51843e-09 1.93305e-10 2.59832e-09 4.34621e-09 1.3025e-10 1.57787e-09 2.51843e-09 -7.73091 5.47488 -0.417314 1.30265e-10 1.57789e-09 2.51842e-09 -2.90554 0.965183 -0.102902 1.30257e-10 1.57789e-09 2.51842e-09 -10.2786 0.731801 -0.0259123 1.30269e-10 1.57788e-09 2.51842e-09 -2.22167 -0.733487 0.20892 -2.03217e-16 0.0 -3.88251e-19 -15.9906 -9.35246 12.0934 -0.151497 22.892 0.506295 -6.00211 -9.34861 -18.5849 2.03217e-16 0.0 3.88251e-19 -7.06206 -4.33088 -8.33929 0.00219756 17.5609 -0.36204 2.9563 -5.97505 19.8466
-172.856 83.2211 -10.0625 -315.437 80.3733 -317.6 9.3674 19.1921 -8.21885 13.4479 -5.18862 -1.00664 -1.89419 13.1446 3.12212 -27.1269 -43.0794 -2.77224 -0.0 0.0 0.0 -0.0 0.0 0.0 1.37155e-13 -1.09452e-13 -1.09825e-13 36.1144 36.7607 8.22555 -24.7518 -20.5731 52.0842 -0.016546 3.66842 0.516276 -3.01738e-09 -1.99756e-09 1.73949e-09 -5.21249e-09 -3.45447e-09 3.01354e-09 -3.01738e-09 -1.99756e-09 1.73949e-09 7.73091 5.47488 0.417314 -3.01738e-09 -1.99756e-09 1.73949e-09 2.90554 0.965183 0.102902 -3.01738e-09 -1.99756e-09 1.73949e-09 10.2786 0.731801 0.0259123 -3.01739e-09 -1.99756e-09 1.7395e-09 2.22167 -0.733487 -0.20892 1.3718e-13 -1.09409e-13 -1.09947e-13 18.8469 -31.9748 -23.2333 28.2148 -32.0989 -70.6077 0.358984 -16.7937 2.43095 7.67108e-11 7.03533e-10 2.27688e-09 1.03267e-10 1.09621e-09 3.93033e-09 7.66967e-11 7.03523e-10 2.27689e-09 -7.73091 5.47488 -0.417314 7.671e-11 7.03533e-10 2.27689e-09 -2.90554 0.965183 -0.102902 7.67047e-11 7.03532e-10 2.27688e-09 -10.2786 0.731801 -0.0259123 7.67185e-11 7.03536e-10 2.27688e-09 -2.22167 -0.733487 0.20892 -2.03217e-16 0.0 -3.88251e-19 -15.6712 -9.40432 11.7169 -0.151569 22.7742 0.494772 -5.82074 -9.2001 -18.1774 2.03217e-16 0.0 3.88251e-19 -6.79728 -4.40622 -8.95145 1.63802e-05 17.6938 -0.364896 3.04473 -5.8491 20.5569
